<svg width="28" height="28" viewBox="0 0 28 28" fill="none" xmlns="http://www.w3.org/2000/svg">
<g id="bi:bookmark-star-fill">
<path id="Vector" fill-rule="evenodd" clip-rule="evenodd" d="M5 24.8203V4.57031C5 3.77466 5.31607 3.0116 5.87868 2.44899C6.44129 1.88638 7.20435 1.57031 8 1.57031L20 1.57031C20.7957 1.57031 21.5587 1.88638 22.1213 2.44899C22.6839 3.0116 23 3.77466 23 4.57031V24.8203C23.0001 24.9506 22.9663 25.0786 22.9019 25.1918C22.8375 25.305 22.7447 25.3995 22.6327 25.4659C22.5207 25.5324 22.3933 25.5685 22.263 25.5708C22.1328 25.573 22.0043 25.5413 21.89 25.4788L14 21.1738L6.11 25.4788C5.99574 25.5413 5.86718 25.573 5.73696 25.5708C5.60674 25.5685 5.47935 25.5324 5.36734 25.4659C5.25532 25.3995 5.16255 25.305 5.09814 25.1918C5.03373 25.0786 4.9999 24.9506 5 24.8203ZM14.24 7.72031C14.2181 7.67533 14.1839 7.63742 14.1415 7.6109C14.0991 7.58438 14.05 7.57031 14 7.57031C13.95 7.57031 13.9009 7.58438 13.8585 7.6109C13.8161 7.63742 13.7819 7.67533 13.76 7.72031L12.809 9.64782C12.79 9.68681 12.7617 9.72057 12.7267 9.74618C12.6917 9.7718 12.6509 9.78849 12.608 9.79482L10.478 10.1038C10.429 10.1113 10.383 10.1322 10.3452 10.1643C10.3074 10.1964 10.2793 10.2384 10.264 10.2856C10.2488 10.3328 10.2469 10.3833 10.2588 10.4315C10.2706 10.4797 10.2956 10.5236 10.331 10.5583L11.87 12.0598C11.933 12.1213 11.9615 12.2098 11.9465 12.2968L11.585 14.4178C11.5768 14.4668 11.5825 14.5171 11.6014 14.563C11.6202 14.6089 11.6515 14.6487 11.6917 14.6778C11.7319 14.707 11.7794 14.7243 11.8289 14.728C11.8785 14.7316 11.928 14.7213 11.972 14.6983L13.877 13.6963C13.9152 13.6763 13.9577 13.6659 14.0008 13.6659C14.0439 13.6659 14.0863 13.6763 14.1245 13.6963L16.0295 14.6983C16.0735 14.7209 16.1228 14.7308 16.1721 14.727C16.2214 14.7232 16.2686 14.7058 16.3086 14.6767C16.3485 14.6476 16.3796 14.608 16.3984 14.5623C16.4172 14.5166 16.423 14.4666 16.415 14.4178L16.052 12.2953C16.0443 12.2527 16.0472 12.2088 16.0602 12.1676C16.0733 12.1263 16.0962 12.0888 16.127 12.0583L17.669 10.5568C17.7044 10.5221 17.7294 10.4782 17.7412 10.43C17.7531 10.3818 17.7513 10.3313 17.736 10.2841C17.7207 10.2369 17.6926 10.1949 17.6548 10.1628C17.617 10.1307 17.571 10.1098 17.522 10.1023L15.392 9.79332C15.3491 9.78699 15.3083 9.7703 15.2733 9.74468C15.2383 9.71907 15.21 9.68531 15.191 9.64632L14.24 7.72031Z" fill="#55BBEB"/>
</g>
</svg>
