<svg width="131" height="24" viewBox="0 0 131 24" fill="none" xmlns="http://www.w3.org/2000/svg">
<g clip-path="url(#clip0_7213_131270)">
<path d="M17.0265 17.2483V16.6026C17.0265 14.3612 15.1422 12.5442 12.8177 12.5442L12.2438 12.5442C10.2363 12.5442 8.60892 10.975 8.60892 9.0392V7.93236C8.60892 6.60789 9.7224 5.5342 11.0959 5.5342C12.4695 5.5342 13.583 4.46051 13.583 3.13605V2.39815C13.583 1.07369 12.4695 -5.78942e-08 11.0959 0C9.7224 5.78942e-08 8.60892 1.09653 8.60892 2.42099C8.60893 3.77093 7.47403 4.88855 6.07407 4.88855H4.25663C1.90576 4.88855 -1.0276e-07 6.72621 0 8.99308C1.0276e-07 11.26 1.90576 13.0976 4.25664 13.0976H4.35229C6.70317 13.0976 8.60893 14.9585 8.60893 17.2253C8.60893 19.4667 10.4933 21.3067 12.8177 21.3067C15.1422 21.3067 17.0265 19.4897 17.0265 17.2483Z" fill="#364954"/>
<path d="M23.0872 19.2775H29.9193C34.1311 19.2775 36.4819 17.4593 36.4819 14.5786C36.4819 12.2173 34.9147 11.0603 32.6374 10.7769C34.5964 10.3755 35.8698 9.1949 35.8698 7.11699C35.8698 4.35431 33.5679 2.74865 29.6009 2.74865H23.0872V19.2775ZM29.6989 5.53494C31.2906 5.53494 32.1966 6.31416 32.1966 7.54201C32.1966 8.76987 31.2661 9.54908 29.6989 9.54908H26.7604V5.53494H29.6989ZM29.9438 12.2881C31.6824 12.2881 32.7109 13.0674 32.7109 14.4133C32.7109 15.6884 31.7069 16.4676 29.9438 16.4676H26.7604V12.2881H29.9438Z" fill="#364954"/>
<path d="M44.3846 19.4192C47.7394 19.4192 49.9188 17.5301 50.3106 15.1689H46.9068C46.6129 16.3023 45.6334 16.8926 44.2376 16.8926C42.499 16.8926 41.3481 15.8537 41.2746 14.1299V13.9646H50.4085C50.482 13.5868 50.5065 13.1854 50.5065 12.8312C50.4575 9.26573 47.9108 6.99892 44.1397 6.99892C40.2462 6.99892 37.675 9.45463 37.675 13.2327C37.675 16.9871 40.1972 19.4192 44.3846 19.4192ZM41.3481 11.7923C41.544 10.3519 42.6704 9.47825 44.1642 9.47825C45.7314 9.47825 46.7843 10.3047 47.0292 11.7923H41.3481Z" fill="#364954"/>
<path d="M55.1748 19.3483L54.8565 20.1511C54.5136 20.9776 54.2198 21.1901 53.3382 21.1901H51.4282V24H54.783C56.742 24 57.3787 23.0083 58.1623 21.0012L63.7455 7.1406H60.0478L57.0603 15.7828L53.9994 7.1406H50.3262L55.1748 19.3483Z" fill="#364954"/>
<path d="M66.4121 5.84191C67.5386 5.84191 68.4201 5.03908 68.4201 3.97651C68.4201 2.89033 67.5386 2.0875 66.4121 2.0875C65.2857 2.0875 64.4041 2.89033 64.4041 3.97651C64.4041 5.03908 65.2857 5.84191 66.4121 5.84191ZM64.6735 19.2775H68.1507V7.1406H64.6735V19.2775Z" fill="#364954"/>
<path d="M85.3474 6.99892C83.4373 6.99892 81.9681 7.75453 81.0865 9.05322C80.3029 7.5184 78.8581 6.97531 77.3154 6.99892C75.4789 7.02254 74.3769 7.7073 73.6178 8.65181L73.2995 7.1406H70.2875V19.2775H73.7402V12.6659C73.7402 10.8478 74.7197 9.73799 76.2135 9.73799C77.7317 9.73799 78.4174 10.6825 78.4174 12.5007V19.2775H81.8701V12.6423C81.8701 10.8006 82.8741 9.73799 84.3679 9.73799C85.8616 9.73799 86.5472 10.6825 86.5472 12.5007V19.2775H90V12.3118C90 8.41568 87.943 6.99892 85.3474 6.99892Z" fill="#364954"/>
</g>
<rect x="95.8398" y="5.15234" width="35.1592" height="14.0637" rx="7.03185" fill="#FD2525"/>
<path d="M100.181 16.3285C99.7665 16.3285 99.3915 16.2518 99.0563 16.0984C98.7211 15.9421 98.4554 15.7163 98.2594 15.4208C98.0662 15.1254 97.9696 14.7631 97.9696 14.3342C97.9696 13.9648 98.0407 13.6609 98.1827 13.4222C98.3248 13.1836 98.5165 12.9947 98.758 12.8555C98.9995 12.7163 99.2694 12.6112 99.5676 12.5401C99.8659 12.4691 100.17 12.4151 100.48 12.3782C100.872 12.3327 101.19 12.2958 101.434 12.2674C101.678 12.2362 101.856 12.1864 101.967 12.1183C102.078 12.0501 102.133 11.9393 102.133 11.7859V11.756C102.133 11.3839 102.028 11.0955 101.818 10.891C101.61 10.6864 101.301 10.5842 100.889 10.5842C100.46 10.5842 100.122 10.6793 99.8745 10.8697C99.6301 11.0572 99.4611 11.266 99.3674 11.4961L98.1699 11.2234C98.312 10.8256 98.5194 10.5046 98.7921 10.2603C99.0676 10.0131 99.3844 9.83416 99.7424 9.72337C100.1 9.60973 100.477 9.55291 100.872 9.55291C101.133 9.55291 101.41 9.58416 101.703 9.64666C101.998 9.70632 102.274 9.81712 102.529 9.97905C102.788 10.141 102.999 10.3725 103.164 10.6737C103.329 10.9719 103.411 11.3597 103.411 11.837V16.1836H102.167V15.2887H102.116C102.034 15.4535 101.91 15.6154 101.745 15.7745C101.58 15.9336 101.369 16.0657 101.11 16.1708C100.852 16.2759 100.542 16.3285 100.181 16.3285ZM100.458 15.3058C100.811 15.3058 101.112 15.2362 101.362 15.0969C101.615 14.9577 101.806 14.7759 101.937 14.5515C102.07 14.3242 102.137 14.0813 102.137 13.8228V12.979C102.092 13.0245 102.004 13.0671 101.873 13.1069C101.745 13.1438 101.599 13.1765 101.434 13.2049C101.269 13.2305 101.109 13.2546 100.953 13.2773C100.796 13.2972 100.666 13.3143 100.561 13.3285C100.313 13.3597 100.088 13.4123 99.883 13.4862C99.6813 13.56 99.5194 13.6665 99.3972 13.8058C99.2779 13.9421 99.2182 14.1239 99.2182 14.3512C99.2182 14.6665 99.3347 14.9052 99.5676 15.0671C99.8006 15.2262 100.097 15.3058 100.458 15.3058ZM106.383 7.45632V16.1836H105.108V7.45632H106.383ZM108.097 18.6381V9.63814H109.341V10.6992H109.448C109.521 10.5629 109.628 10.4052 109.767 10.2262C109.906 10.0472 110.1 9.89098 110.347 9.75746C110.594 9.62109 110.921 9.55291 111.327 9.55291C111.855 9.55291 112.327 9.68643 112.742 9.95348C113.156 10.2205 113.482 10.6055 113.718 11.1083C113.956 11.6112 114.075 12.2163 114.075 12.9237C114.075 13.631 113.958 14.2376 113.722 14.7433C113.486 15.2461 113.162 15.6339 112.75 15.9066C112.338 16.1765 111.868 16.3114 111.34 16.3114C110.942 16.3114 110.617 16.2447 110.364 16.1112C110.114 15.9776 109.918 15.8214 109.776 15.6424C109.634 15.4634 109.524 15.3043 109.448 15.1651H109.371V18.6381H108.097ZM109.345 12.9109C109.345 13.3711 109.412 13.7745 109.546 14.1211C109.679 14.4677 109.872 14.739 110.125 14.935C110.378 15.1282 110.688 15.2248 111.054 15.2248C111.435 15.2248 111.753 15.1239 112.009 14.9222C112.264 14.7177 112.458 14.4407 112.588 14.0913C112.722 13.7418 112.789 13.3484 112.789 12.9109C112.789 12.479 112.723 12.0913 112.593 11.7475C112.465 11.4038 112.271 11.1325 112.013 10.9336C111.757 10.7347 111.438 10.6353 111.054 10.6353C110.685 10.6353 110.372 10.7305 110.117 10.9208C109.864 11.1112 109.672 11.3768 109.541 11.7177C109.411 12.0586 109.345 12.4563 109.345 12.9109ZM116.777 12.2972V16.1836H115.503V7.45632H116.76V10.7035H116.841C116.994 10.3512 117.229 10.0714 117.544 9.86399C117.86 9.65661 118.271 9.55291 118.78 9.55291C119.229 9.55291 119.621 9.64524 119.956 9.8299C120.294 10.0146 120.556 10.2901 120.74 10.6566C120.928 11.0202 121.021 11.4748 121.021 12.0202V16.1836H119.747V12.1737C119.747 11.6935 119.624 11.3214 119.377 11.0572C119.129 10.7901 118.786 10.6566 118.345 10.6566C118.044 10.6566 117.774 10.7205 117.536 10.8484C117.3 10.9762 117.114 11.1637 116.977 11.4109C116.844 11.6552 116.777 11.9506 116.777 12.2972ZM124.627 16.3285C124.212 16.3285 123.837 16.2518 123.502 16.0984C123.166 15.9421 122.901 15.7163 122.705 15.4208C122.512 15.1254 122.415 14.7631 122.415 14.3342C122.415 13.9648 122.486 13.6609 122.628 13.4222C122.77 13.1836 122.962 12.9947 123.203 12.8555C123.445 12.7163 123.715 12.6112 124.013 12.5401C124.311 12.4691 124.615 12.4151 124.925 12.3782C125.317 12.3327 125.635 12.2958 125.879 12.2674C126.124 12.2362 126.301 12.1864 126.412 12.1183C126.523 12.0501 126.578 11.9393 126.578 11.7859V11.756C126.578 11.3839 126.473 11.0955 126.263 10.891C126.056 10.6864 125.746 10.5842 125.334 10.5842C124.905 10.5842 124.567 10.6793 124.32 10.8697C124.075 11.0572 123.906 11.266 123.813 11.4961L122.615 11.2234C122.757 10.8256 122.965 10.5046 123.237 10.2603C123.513 10.0131 123.83 9.83416 124.188 9.72337C124.546 9.60973 124.922 9.55291 125.317 9.55291C125.578 9.55291 125.855 9.58416 126.148 9.64666C126.443 9.70632 126.719 9.81712 126.975 9.97905C127.233 10.141 127.445 10.3725 127.61 10.6737C127.774 10.9719 127.857 11.3597 127.857 11.837V16.1836H126.612V15.2887H126.561C126.479 15.4535 126.355 15.6154 126.191 15.7745C126.026 15.9336 125.814 16.0657 125.556 16.1708C125.297 16.2759 124.987 16.3285 124.627 16.3285ZM124.904 15.3058C125.256 15.3058 125.557 15.2362 125.807 15.0969C126.06 14.9577 126.252 14.7759 126.382 14.5515C126.516 14.3242 126.583 14.0813 126.583 13.8228V12.979C126.537 13.0245 126.449 13.0671 126.318 13.1069C126.191 13.1438 126.044 13.1765 125.879 13.2049C125.715 13.2305 125.554 13.2546 125.398 13.2773C125.242 13.2972 125.111 13.3143 125.006 13.3285C124.759 13.3597 124.533 13.4123 124.328 13.4862C124.127 13.56 123.965 13.6665 123.843 13.8058C123.723 13.9421 123.664 14.1239 123.664 14.3512C123.664 14.6665 123.78 14.9052 124.013 15.0671C124.246 15.2262 124.543 15.3058 124.904 15.3058Z" fill="white"/>
<g clip-path="url(#clip1_7213_131270)">
<path fill-rule="evenodd" clip-rule="evenodd" d="M15.9637 4.12975C15.9637 5.85824 14.6134 7.25949 12.9476 7.25949C12.3397 7.25949 11.7017 7.34446 11.2361 7.75011L11.0199 7.93848C10.249 8.61023 10.0629 9.73816 10.1128 10.7815C10.1166 10.8605 10.1185 10.9401 10.1185 11.02C10.1185 11.7957 10.316 12.5976 10.8809 13.1056L11.4226 13.5928C12.2323 14.321 13.3724 14.4409 14.444 14.4409C16.9878 14.4409 19.05 16.5808 19.05 19.2205C19.05 21.8601 16.9878 24 14.444 24C11.9001 24 9.83795 21.8601 9.83795 19.2205C9.83795 18.3468 9.63272 17.4344 8.99648 16.8622L8.66311 16.5624C7.8554 15.8359 6.71385 15.7298 5.64517 15.7502C5.6166 15.7508 5.58796 15.7511 5.55926 15.7511C3.04125 15.7511 1 13.6329 1 11.02C1 8.40716 3.04125 6.28903 5.55926 6.28903C5.89492 6.28903 6.22211 6.32663 6.53709 6.39811C7.39466 6.59254 8.34527 6.56309 9.01747 5.97741L9.36884 5.67126C9.79213 5.30241 9.93148 4.70326 9.93148 4.12975C9.93148 2.40125 11.2818 1 12.9476 1C14.6134 1 15.9637 2.40125 15.9637 4.12975Z" fill="#55BBEB"/>
</g>
<defs>
<clipPath id="clip0_7213_131270">
<rect width="68" height="24" fill="white" transform="translate(22)"/>
</clipPath>
<clipPath id="clip1_7213_131270">
<rect width="19" height="23" fill="white" transform="translate(1 1)"/>
</clipPath>
</defs>
</svg>
