<svg width="24" height="24" viewBox="0 0 24 24" fill="none" xmlns="http://www.w3.org/2000/svg">
<path fill-rule="evenodd" clip-rule="evenodd" d="M11.7692 5.83203C11.2345 5.83203 10.797 6.26953 10.8028 6.80425C10.8028 7.33898 11.2403 7.77648 11.775 7.77648C12.3097 7.77648 12.7472 7.33898 12.7472 6.80425C12.7472 6.26953 12.3097 5.83203 11.7692 5.83203Z" fill="#364954"/>
<path d="M11.7692 5.83203C11.2345 5.83203 10.797 6.26953 10.8028 6.80425C10.8028 7.33898 11.2403 7.77648 11.775 7.77648C12.3097 7.77648 12.7472 7.33898 12.7472 6.80425C12.7472 6.26953 12.3097 5.83203 11.7692 5.83203" stroke="#364954" stroke-width="1.45833" stroke-linecap="round" stroke-linejoin="round"/>
<path fill-rule="evenodd" clip-rule="evenodd" d="M11.7692 11.6641C11.2345 11.6641 10.797 12.1016 10.8028 12.6363C10.8028 13.171 11.2403 13.6085 11.775 13.6085C12.3097 13.6085 12.7472 13.171 12.7472 12.6363C12.7472 12.1016 12.3097 11.6641 11.7692 11.6641Z" fill="#364954"/>
<path d="M11.7692 11.6641C11.2345 11.6641 10.797 12.1016 10.8028 12.6363C10.8028 13.171 11.2403 13.6085 11.775 13.6085C12.3097 13.6085 12.7472 13.171 12.7472 12.6363C12.7472 12.1016 12.3097 11.6641 11.7692 11.6641" stroke="#364954" stroke-width="1.45833" stroke-linecap="round" stroke-linejoin="round"/>
<path fill-rule="evenodd" clip-rule="evenodd" d="M11.7692 17.5C11.2345 17.5 10.797 17.9375 10.8028 18.4722C10.8028 19.0069 11.2403 19.4444 11.775 19.4444C12.3097 19.4444 12.7472 19.0069 12.7472 18.4722C12.7472 17.9375 12.3097 17.5 11.7692 17.5Z" fill="#364954"/>
<path d="M11.7692 17.5C11.2345 17.5 10.797 17.9375 10.8028 18.4722C10.8028 19.0069 11.2403 19.4444 11.775 19.4444C12.3097 19.4444 12.7472 19.0069 12.7472 18.4722C12.7472 17.9375 12.3097 17.5 11.7692 17.5" stroke="#364954" stroke-width="1.45833" stroke-linecap="round" stroke-linejoin="round"/>
</svg>
