<svg width="24" height="24" viewBox="0 0 24 24" fill="none" xmlns="http://www.w3.org/2000/svg">
<path d="M20.5115 24H4.12572C4.024 24 3.92645 23.9596 3.85452 23.8877C3.7826 23.8157 3.74219 23.7182 3.74219 23.6165V0.383531C3.74219 0.281812 3.7826 0.18426 3.85452 0.112334C3.92645 0.0404076 4.024 0 4.12572 0L13.5376 0L20.8951 7.3575V23.6165C20.8951 23.7182 20.8546 23.8157 20.7827 23.8877C20.7108 23.9596 20.6132 24 20.5115 24Z" fill="#CBDCE7"/>
<path d="M13.5372 0L20.8947 7.3575H15.101C14.2373 7.3575 13.5371 6.65733 13.5371 5.79361V0H13.5372Z" fill="#678AA1"/>
</svg>
