<svg width="24" height="24" viewBox="0 0 24 24" fill="none" xmlns="http://www.w3.org/2000/svg">
<path d="M12 2C17.523 2 22 6.478 22 12C22 17.522 17.523 22 12 22C6.477 22 2 17.522 2 12C2 6.478 6.477 2 12 2ZM12 15.5C11.7348 15.5 11.4804 15.6054 11.2929 15.7929C11.1054 15.9804 11 16.2348 11 16.5C11 16.7652 11.1054 17.0196 11.2929 17.2071C11.4804 17.3946 11.7348 17.5 12 17.5C12.2652 17.5 12.5196 17.3946 12.7071 17.2071C12.8946 17.0196 13 16.7652 13 16.5C13 16.2348 12.8946 15.9804 12.7071 15.7929C12.5196 15.6054 12.2652 15.5 12 15.5ZM12 6.75C11.2707 6.75 10.5712 7.03973 10.0555 7.55546C9.53973 8.07118 9.25 8.77065 9.25 9.5C9.25006 9.69002 9.32224 9.87294 9.45197 10.0118C9.5817 10.1506 9.7593 10.2351 9.94888 10.248C10.1385 10.261 10.3259 10.2015 10.4733 10.0816C10.6207 9.96165 10.7171 9.79025 10.743 9.602L10.75 9.5C10.75 9.16848 10.8817 8.85054 11.1161 8.61612C11.3505 8.3817 11.6685 8.25 12 8.25C12.3315 8.25 12.6495 8.3817 12.8839 8.61612C13.1183 8.85054 13.25 9.16848 13.25 9.5C13.25 10.039 13.115 10.305 12.605 10.832L12.47 10.97C11.592 11.848 11.25 12.417 11.25 13.5C11.25 13.6989 11.329 13.8897 11.4697 14.0303C11.6103 14.171 11.8011 14.25 12 14.25C12.1989 14.25 12.3897 14.171 12.5303 14.0303C12.671 13.8897 12.75 13.6989 12.75 13.5C12.75 12.961 12.885 12.695 13.395 12.168L13.53 12.03C14.408 11.152 14.75 10.583 14.75 9.5C14.75 8.77065 14.4603 8.07118 13.9445 7.55546C13.4288 7.03973 12.7293 6.75 12 6.75Z" fill="#E55959"/>
</svg>
