<svg width="24" height="25" viewBox="0 0 24 25" fill="none" xmlns="http://www.w3.org/2000/svg">
<g id="fluent:question-circle-24-filled">
<path id="Vector" d="M12 2.2832C17.523 2.2832 22 6.7612 22 12.2832C22 17.8052 17.523 22.2832 12 22.2832C6.477 22.2832 2 17.8052 2 12.2832C2 6.7612 6.477 2.2832 12 2.2832ZM12 15.7832C11.7348 15.7832 11.4804 15.8886 11.2929 16.0761C11.1054 16.2636 11 16.518 11 16.7832C11 17.0484 11.1054 17.3028 11.2929 17.4903C11.4804 17.6778 11.7348 17.7832 12 17.7832C12.2652 17.7832 12.5196 17.6778 12.7071 17.4903C12.8946 17.3028 13 17.0484 13 16.7832C13 16.518 12.8946 16.2636 12.7071 16.0761C12.5196 15.8886 12.2652 15.7832 12 15.7832ZM12 7.0332C11.2707 7.0332 10.5712 7.32293 10.0555 7.83866C9.53973 8.35438 9.25 9.05386 9.25 9.7832C9.25006 9.97323 9.32224 10.1561 9.45197 10.295C9.5817 10.4338 9.7593 10.5183 9.94888 10.5312C10.1385 10.5442 10.3259 10.4847 10.4733 10.3648C10.6207 10.2449 10.7171 10.0735 10.743 9.8852L10.75 9.7832C10.75 9.45168 10.8817 9.13374 11.1161 8.89932C11.3505 8.6649 11.6685 8.5332 12 8.5332C12.3315 8.5332 12.6495 8.6649 12.8839 8.89932C13.1183 9.13374 13.25 9.45168 13.25 9.7832C13.25 10.3222 13.115 10.5882 12.605 11.1152L12.47 11.2532C11.592 12.1312 11.25 12.7002 11.25 13.7832C11.25 13.9821 11.329 14.1729 11.4697 14.3135C11.6103 14.4542 11.8011 14.5332 12 14.5332C12.1989 14.5332 12.3897 14.4542 12.5303 14.3135C12.671 14.1729 12.75 13.9821 12.75 13.7832C12.75 13.2442 12.885 12.9782 13.395 12.4512L13.53 12.3132C14.408 11.4352 14.75 10.8662 14.75 9.7832C14.75 9.05386 14.4603 8.35438 13.9445 7.83866C13.4288 7.32293 12.7293 7.0332 12 7.0332Z" fill="#71BD4E"/>
</g>
</svg>
