<svg width="24" height="25" viewBox="0 0 24 25" fill="none" xmlns="http://www.w3.org/2000/svg">
<g id="fluent:question-circle-24-filled">
<path id="Vector" d="M12 2.85547C17.523 2.85547 22 7.33347 22 12.8555C22 18.3775 17.523 22.8555 12 22.8555C6.477 22.8555 2 18.3775 2 12.8555C2 7.33347 6.477 2.85547 12 2.85547ZM12 16.3555C11.7348 16.3555 11.4804 16.4608 11.2929 16.6484C11.1054 16.8359 11 17.0903 11 17.3555C11 17.6207 11.1054 17.875 11.2929 18.0626C11.4804 18.2501 11.7348 18.3555 12 18.3555C12.2652 18.3555 12.5196 18.2501 12.7071 18.0626C12.8946 17.875 13 17.6207 13 17.3555C13 17.0903 12.8946 16.8359 12.7071 16.6484C12.5196 16.4608 12.2652 16.3555 12 16.3555ZM12 7.60547C11.2707 7.60547 10.5712 7.8952 10.0555 8.41092C9.53973 8.92665 9.25 9.62612 9.25 10.3555C9.25006 10.5455 9.32224 10.7284 9.45197 10.8673C9.5817 11.0061 9.7593 11.0905 9.94888 11.1035C10.1385 11.1164 10.3259 11.057 10.4733 10.937C10.6207 10.8171 10.7171 10.6457 10.743 10.4575L10.75 10.3555C10.75 10.0239 10.8817 9.70601 11.1161 9.47159C11.3505 9.23716 11.6685 9.10547 12 9.10547C12.3315 9.10547 12.6495 9.23716 12.8839 9.47159C13.1183 9.70601 13.25 10.0239 13.25 10.3555C13.25 10.8945 13.115 11.1605 12.605 11.6875L12.47 11.8255C11.592 12.7035 11.25 13.2725 11.25 14.3555C11.25 14.5544 11.329 14.7451 11.4697 14.8858C11.6103 15.0265 11.8011 15.1055 12 15.1055C12.1989 15.1055 12.3897 15.0265 12.5303 14.8858C12.671 14.7451 12.75 14.5544 12.75 14.3555C12.75 13.8165 12.885 13.5505 13.395 13.0235L13.53 12.8855C14.408 12.0075 14.75 11.4385 14.75 10.3555C14.75 9.62612 14.4603 8.92665 13.9445 8.41092C13.4288 7.8952 12.7293 7.60547 12 7.60547Z" fill="#B9C9E3"/>
</g>
</svg>
