<svg width="28" height="29" viewBox="0 0 28 29" fill="none" xmlns="http://www.w3.org/2000/svg">
<g id="ph:heart-fill">
<path id="Vector" d="M26.25 11.1367C26.25 18.793 14.898 24.9902 14.4145 25.2461C14.2871 25.3146 14.1447 25.3505 14 25.3505C13.8553 25.3505 13.7129 25.3146 13.5855 25.2461C13.102 24.9902 1.75 18.793 1.75 11.1367C1.75203 9.33884 2.46713 7.61518 3.73842 6.34389C5.00971 5.0726 6.73337 4.3575 8.53125 4.35547C10.7898 4.35547 12.7673 5.32672 14 6.96844C15.2327 5.32672 17.2102 4.35547 19.4688 4.35547C21.2666 4.3575 22.9903 5.0726 24.2616 6.34389C25.5329 7.61518 26.248 9.33884 26.25 11.1367Z" fill="#B9C9E3"/>
</g>
</svg>
