<svg width="24" height="25" viewBox="0 0 24 25" fill="none" xmlns="http://www.w3.org/2000/svg">
<g id="twemoji:light-bulb" clip-path="url(#clip0_12744_23366)">
<path id="Vector" d="M19.3333 7.9382C19.3333 12.2309 16 12.8975 16 16.8982C16 18.9635 13.918 19.1375 12.3333 19.1375C10.9646 19.1375 7.94263 18.6182 7.94263 16.8969C7.94263 12.8982 4.66663 12.2315 4.66663 7.9382C4.66663 3.91754 8.18996 0.658203 12.0553 0.658203C15.922 0.658203 19.3333 3.91754 19.3333 7.9382Z" fill="#FCAF3A"/>
<path id="Vector_2" d="M14.7782 22.2296C14.7782 22.7816 13.2888 23.8962 12.0002 23.8962C10.7115 23.8962 9.22217 22.7816 9.22217 22.2296C9.22217 21.6776 10.7108 21.8962 12.0002 21.8962C13.2888 21.8962 14.7782 21.6776 14.7782 22.2296Z" fill="#CBDCE7"/>
<path id="Vector_3" d="M15.138 7.42398C15.0761 7.36202 15.0027 7.31286 14.9218 7.27932C14.8409 7.24578 14.7542 7.22852 14.6666 7.22852C14.5791 7.22852 14.4924 7.24578 14.4115 7.27932C14.3306 7.31286 14.2572 7.36202 14.1953 7.42398L12 9.61932L9.80465 7.42398C9.74275 7.36209 9.66927 7.31299 9.5884 7.27949C9.50753 7.24599 9.42085 7.22875 9.33331 7.22875C9.24578 7.22875 9.1591 7.24599 9.07823 7.27949C8.99736 7.31299 8.92388 7.36209 8.86198 7.42398C8.80008 7.48588 8.75099 7.55936 8.71749 7.64023C8.68399 7.7211 8.66675 7.80778 8.66675 7.89532C8.66675 7.98285 8.68399 8.06953 8.71749 8.1504C8.75099 8.23127 8.80008 8.30475 8.86198 8.36665L11.3333 10.838V17.8953C11.3333 18.0721 11.4036 18.2417 11.5286 18.3667C11.6536 18.4917 11.8232 18.562 12 18.562C12.1768 18.562 12.3464 18.4917 12.4714 18.3667C12.5964 18.2417 12.6666 18.0721 12.6666 17.8953V10.838L15.138 8.36665C15.1999 8.30479 15.2491 8.23132 15.2826 8.15045C15.3162 8.06957 15.3334 7.98287 15.3334 7.89532C15.3334 7.80776 15.3162 7.72106 15.2826 7.64019C15.2491 7.55931 15.1999 7.48584 15.138 7.42398Z" fill="#FFF5E2"/>
<path id="Vector_4" d="M16 21.2285C16 21.5821 15.8595 21.9213 15.6095 22.1713C15.3594 22.4214 15.0203 22.5618 14.6667 22.5618H9.33333C8.97971 22.5618 8.64057 22.4214 8.39052 22.1713C8.14048 21.9213 8 21.5821 8 21.2285V17.2285H16V21.2285Z" fill="#577487"/>
<path id="Vector_5" d="M7.99928 21.8979C7.83234 21.8973 7.6717 21.8341 7.54913 21.7208C7.42656 21.6074 7.35097 21.4522 7.33732 21.2858C7.32366 21.1194 7.37293 20.954 7.47538 20.8222C7.57783 20.6904 7.72601 20.6018 7.89061 20.5739L15.8906 19.2406C15.977 19.2258 16.0655 19.2282 16.1509 19.2477C16.2363 19.2673 16.317 19.3036 16.3883 19.3546C16.4596 19.4055 16.5201 19.4701 16.5663 19.5447C16.6125 19.6192 16.6434 19.7021 16.6573 19.7886C16.6717 19.8749 16.6689 19.9633 16.6492 20.0485C16.6294 20.1338 16.5931 20.2143 16.5422 20.2855C16.4913 20.3567 16.4269 20.4172 16.3526 20.4635C16.2783 20.5098 16.1956 20.541 16.1093 20.5553L8.10928 21.8886C8.07297 21.895 8.03615 21.8981 7.99928 21.8979ZM7.99928 19.2313C7.83234 19.2307 7.6717 19.1674 7.54913 19.0541C7.42656 18.9407 7.35097 18.7855 7.33732 18.6192C7.32366 18.4528 7.37293 18.2873 7.47538 18.1555C7.57783 18.0237 7.72601 17.9351 7.89061 17.9073L15.8906 16.5739C15.977 16.5592 16.0654 16.5617 16.1508 16.5813C16.2362 16.6009 16.3169 16.6372 16.3882 16.6881C16.4595 16.7391 16.5199 16.8037 16.5661 16.8781C16.6123 16.9526 16.6433 17.0354 16.6573 17.1219C16.6717 17.2083 16.6689 17.2966 16.6492 17.3819C16.6294 17.4671 16.5931 17.5477 16.5422 17.6189C16.4913 17.6901 16.4269 17.7505 16.3526 17.7968C16.2783 17.8431 16.1956 17.8743 16.1093 17.8886L8.10928 19.2219C8.07297 19.2283 8.03615 19.2315 7.99928 19.2313Z" fill="#CBDCE7"/>
</g>
<defs>
<clipPath id="clip0_12744_23366">
<rect width="24" height="24" fill="white" transform="translate(0 0.564453)"/>
</clipPath>
</defs>
</svg>
