<svg width="24" height="25" viewBox="0 0 24 25" fill="none" xmlns="http://www.w3.org/2000/svg">
<g id="ic:round-access-time-filled">
<path id="Vector" d="M11.99 2.2832C6.47 2.2832 2 6.7632 2 12.2832C2 17.8032 6.47 22.2832 11.99 22.2832C17.52 22.2832 22 17.8032 22 12.2832C22 6.7632 17.52 2.2832 11.99 2.2832ZM16 16.2832C15.9075 16.3759 15.7976 16.4495 15.6766 16.4996C15.5557 16.5498 15.426 16.5756 15.295 16.5756C15.164 16.5756 15.0343 16.5498 14.9134 16.4996C14.7924 16.4495 14.6825 16.3759 14.59 16.2832L11.3 12.9932C11.2055 12.9006 11.1303 12.7901 11.0788 12.6683C11.0273 12.5464 11.0005 12.4155 11 12.2832V8.2832C11 7.7332 11.45 7.2832 12 7.2832C12.55 7.2832 13 7.7332 13 8.2832V11.8732L16 14.8732C16.39 15.2632 16.39 15.8932 16 16.2832Z" fill="#71BD4E"/>
</g>
</svg>
