<svg width="24" height="25" viewBox="0 0 24 25" fill="none" xmlns="http://www.w3.org/2000/svg">
<g id="ic:round-access-time-filled">
<path id="Vector" d="M11.99 2.85547C6.47 2.85547 2 7.33547 2 12.8555C2 18.3755 6.47 22.8555 11.99 22.8555C17.52 22.8555 22 18.3755 22 12.8555C22 7.33547 17.52 2.85547 11.99 2.85547ZM16 16.8555C15.9075 16.9482 15.7976 17.0217 15.6766 17.0719C15.5557 17.1221 15.426 17.1479 15.295 17.1479C15.164 17.1479 15.0343 17.1221 14.9134 17.0719C14.7924 17.0217 14.6825 16.9482 14.59 16.8555L11.3 13.5655C11.2055 13.4729 11.1303 13.3624 11.0788 13.2405C11.0273 13.1187 11.0005 12.9878 11 12.8555V8.85547C11 8.30547 11.45 7.85547 12 7.85547C12.55 7.85547 13 8.30547 13 8.85547V12.4455L16 15.4455C16.39 15.8355 16.39 16.4655 16 16.8555Z" fill="#B9C9E3"/>
</g>
</svg>
