<svg width="24" height="25" viewBox="0 0 24 25" fill="none" xmlns="http://www.w3.org/2000/svg">
<path fill-rule="evenodd" clip-rule="evenodd" d="M14.0002 2.28371C14.0003 2.06388 13.928 1.85014 13.7944 1.67555C13.6608 1.50096 13.4734 1.37525 13.2612 1.31787C13.049 1.26049 12.8238 1.27464 12.6204 1.35812C12.417 1.44161 12.2469 1.58978 12.1362 1.77971L5.13617 13.7797C5.04749 13.9317 5.00048 14.1044 4.99988 14.2803C4.99929 14.4563 5.04513 14.6293 5.13277 14.7818C5.22042 14.9344 5.34677 15.0611 5.49907 15.1493C5.65137 15.2374 5.82422 15.2838 6.00017 15.2837H10.0002V22.2837C10.0001 22.5035 10.0724 22.7173 10.206 22.8919C10.3396 23.0665 10.5269 23.1922 10.7392 23.2496C10.9514 23.3069 11.1766 23.2928 11.3799 23.2093C11.5833 23.1258 11.7535 22.9776 11.8642 22.7877L18.8642 10.7877C18.9529 10.6357 18.9999 10.4631 19.0005 10.2871C19.0011 10.1112 18.9552 9.93816 18.8676 9.78559C18.7799 9.63302 18.6536 9.50627 18.5013 9.41815C18.349 9.33003 18.1761 9.28366 18.0002 9.28371H14.0002V2.28371Z" fill="#A3C0D2"/>
</svg>
