<svg width="18" height="18" viewBox="0 0 18 18" fill="none" xmlns="http://www.w3.org/2000/svg">
<g id="iconamoon:lightning-1-fill">
<path id="Vector" fill-rule="evenodd" clip-rule="evenodd" d="M10.5 1.49843C10.5001 1.33355 10.4458 1.17325 10.3456 1.0423C10.2454 0.911361 10.1049 0.81708 9.94574 0.774046C9.78658 0.731011 9.61767 0.741622 9.46515 0.804236C9.31263 0.866849 9.18499 0.977977 9.10198 1.12043L3.85198 10.1204C3.78547 10.2344 3.75021 10.3639 3.74976 10.4959C3.74931 10.6278 3.78369 10.7576 3.84943 10.872C3.91516 10.9864 4.00993 11.0815 4.12415 11.1476C4.23837 11.2137 4.36801 11.2485 4.49998 11.2484H7.49998V16.4984C7.49989 16.6633 7.55414 16.8236 7.65433 16.9546C7.75452 17.0855 7.89506 17.1798 8.05422 17.2228C8.21338 17.2658 8.38228 17.2552 8.5348 17.1926C8.68733 17.13 8.81497 17.0189 8.89798 16.8764L14.148 7.87643C14.2145 7.76245 14.2497 7.63294 14.2502 7.50097C14.2506 7.36901 14.2163 7.23926 14.1505 7.12484C14.0848 7.01041 13.99 6.91535 13.8758 6.84926C13.7616 6.78317 13.6319 6.74839 13.5 6.74843H10.5V1.49843Z" fill="#A3C0D2"/>
</g>
</svg>
