<svg width="24" height="24" viewBox="0 0 24 24" fill="none" xmlns="http://www.w3.org/2000/svg">
<path fill-rule="evenodd" clip-rule="evenodd" d="M14.0003 1.99856C14.0004 1.77872 13.9281 1.56498 13.7945 1.39039C13.6609 1.2158 13.4735 1.09009 13.2613 1.03271C13.0491 0.975333 12.8239 0.98948 12.6205 1.07297C12.4172 1.15645 12.247 1.30462 12.1363 1.49456L5.1363 13.4946C5.04762 13.6465 5.0006 13.8192 5.00001 13.9952C4.99941 14.1711 5.04525 14.3441 5.13289 14.4967C5.22054 14.6493 5.34689 14.776 5.49919 14.8641C5.65149 14.9522 5.82434 14.9986 6.0003 14.9986H10.0003V21.9986C10.0002 22.2184 10.0725 22.4321 10.2061 22.6067C10.3397 22.7813 10.5271 22.907 10.7393 22.9644C10.9515 23.0218 11.1767 23.0076 11.3801 22.9241C11.5834 22.8407 11.7536 22.6925 11.8643 22.5026L18.8643 10.5026C18.953 10.3506 19 10.1779 19.0006 10.002C19.0012 9.826 18.9553 9.653 18.8677 9.50043C18.7801 9.34786 18.6537 9.22112 18.5014 9.133C18.3491 9.04488 18.1762 8.9985 18.0003 8.99856H14.0003V1.99856Z" fill="#65A845"/>
</svg>
