<svg width="25" height="24" viewBox="0 0 25 24" fill="none" xmlns="http://www.w3.org/2000/svg">
<g id="iconamoon:information-circle-fill">
<path id="Vector" fill-rule="evenodd" clip-rule="evenodd" d="M2.72266 12.2222C2.72266 6.85264 7.07529 2.5 12.4449 2.5C17.8145 2.5 22.1671 6.85264 22.1671 12.2222C22.1671 17.5918 17.8145 21.9444 12.4449 21.9444C7.07529 21.9444 2.72266 17.5918 2.72266 12.2222ZM10.9865 8.33333C10.9865 7.94656 11.1402 7.57563 11.4137 7.30214C11.6872 7.02865 12.0581 6.875 12.4449 6.875H12.4546C12.8414 6.875 13.2123 7.02865 13.4858 7.30214C13.7593 7.57563 13.9129 7.94656 13.9129 8.33333V8.34306C13.9129 8.72983 13.7593 9.10076 13.4858 9.37425C13.2123 9.64774 12.8414 9.80139 12.4546 9.80139H12.4449C12.0581 9.80139 11.6872 9.64774 11.4137 9.37425C11.1402 9.10076 10.9865 8.72983 10.9865 8.34306V8.33333ZM12.4449 11.25C12.7027 11.25 12.95 11.3524 13.1323 11.5348C13.3147 11.7171 13.4171 11.9644 13.4171 12.2222V16.1111C13.4171 16.369 13.3147 16.6162 13.1323 16.7986C12.95 16.9809 12.7027 17.0833 12.4449 17.0833C12.187 17.0833 11.9397 16.9809 11.7574 16.7986C11.5751 16.6162 11.4727 16.369 11.4727 16.1111V12.2222C11.4727 11.9644 11.5751 11.7171 11.7574 11.5348C11.9397 11.3524 12.187 11.25 12.4449 11.25Z" fill="#A3C0D2"/>
</g>
</svg>
