<svg xmlns="http://www.w3.org/2000/svg" width="18" height="18" viewBox="0 0 18 18" fill="none">
<path fill-rule="evenodd" clip-rule="evenodd" d="M10.5002 1.50038C10.5003 1.33551 10.4461 1.1752 10.3459 1.04426C10.2457 0.913314 10.1051 0.819033 9.94598 0.775999C9.78682 0.732965 9.61792 0.743575 9.4654 0.806189C9.31287 0.868802 9.18523 0.97993 9.10222 1.12238L3.85222 10.1224C3.78571 10.2364 3.75045 10.3659 3.75 10.4978C3.74956 10.6298 3.78394 10.7595 3.84967 10.874C3.91541 10.9884 4.01017 11.0835 4.12439 11.1495C4.23862 11.2156 4.36826 11.2504 4.50022 11.2504H7.50022V16.5004C7.50014 16.6653 7.55439 16.8256 7.65457 16.9565C7.75476 17.0875 7.8953 17.1817 8.05446 17.2248C8.21362 17.2678 8.38252 17.2572 8.53505 17.1946C8.68757 17.132 8.81521 17.0208 8.89822 16.8784L14.1482 7.87838C14.2147 7.7644 14.25 7.63489 14.2504 7.50293C14.2509 7.37096 14.2165 7.24122 14.1508 7.12679C14.085 7.01236 13.9903 6.9173 13.876 6.85121C13.7618 6.78512 13.6322 6.75034 13.5002 6.75038H10.5002V1.50038Z" fill="#A3C0D2"/>
</svg>