<svg xmlns="http://www.w3.org/2000/svg" width="24" height="24" viewBox="0 0 24 24" fill="none">
<path d="M17.6601 16.361C17.0259 16.361 16.5117 15.8468 16.5117 15.2126V8.52514C16.5117 6.27125 14.678 4.4375 12.4241 4.4375C10.1702 4.4375 8.33643 6.2712 8.33643 8.52514V12.4147C8.33643 13.049 7.82225 13.5631 7.18799 13.5631C6.55372 13.5631 6.03955 13.049 6.03955 12.4147V8.52514C6.03955 5.00469 8.90361 2.14062 12.4241 2.14062C15.9445 2.14062 18.8086 5.00469 18.8086 8.52514V15.2126C18.8086 15.8468 18.2944 16.361 17.6601 16.361Z" fill="#B1B4B5"/>
<path d="M19.4117 23.3165H5.43647C4.13171 23.3165 3.07397 22.2587 3.07397 20.954V12.8742C3.07397 11.5695 4.13171 10.5117 5.43647 10.5117H19.4117C20.7165 10.5117 21.7742 11.5695 21.7742 12.8742V20.9539C21.7742 22.2587 20.7165 23.3165 19.4117 23.3165Z" fill="#FFB636"/>
<path d="M5.12393 21.4148H5.00557C4.63277 21.4148 4.33057 21.1126 4.33057 20.7398V13.093C4.33057 12.7202 4.63277 12.418 5.00557 12.418H5.12393C5.49672 12.418 5.79893 12.7202 5.79893 13.093V20.7398C5.79893 21.1126 5.49672 21.4148 5.12393 21.4148Z" fill="#FFD469"/>
</svg>