<svg width="120" height="24" viewBox="0 0 120 24" fill="none" xmlns="http://www.w3.org/2000/svg">
<g clip-path="url(#clip0_12002_5079)">
<path d="M15.597 16.8109V16.2191C15.597 14.1644 13.8708 12.4988 11.7416 12.4988L11.2158 12.4988C9.3769 12.4988 7.88616 11.0604 7.88616 9.28593V8.27133C7.88616 7.05724 8.90614 6.07302 10.1644 6.07302C11.4226 6.07302 12.4425 5.0888 12.4425 3.87471V3.19831C12.4425 1.98422 11.4226 1 10.1643 1C8.90614 1 7.88616 2.00515 7.88616 3.21925C7.88616 4.45669 6.84657 5.48117 5.56416 5.48117H3.89933C1.74586 5.48117 0.000121976 7.16569 0.00012207 9.24366C0.000122164 11.3216 1.74586 13.0061 3.89933 13.0061H3.98695C6.14043 13.0061 7.88616 14.7119 7.88616 16.7899C7.88616 18.8445 9.61228 20.5311 11.7416 20.5311C13.8708 20.5311 15.597 18.8655 15.597 16.8109Z" fill="#364954"/>
<path d="M21.1487 18.671H27.4071C31.2653 18.671 33.4187 17.0044 33.4187 14.3637C33.4187 12.1992 31.9831 11.1386 29.897 10.8789C31.6915 10.5109 32.8579 9.42865 32.8579 7.5239C32.8579 4.99145 30.7494 3.5196 27.1155 3.5196H21.1487V18.671ZM27.2052 6.0737C28.6632 6.0737 29.4932 6.78798 29.4932 7.91351C29.4932 9.03905 28.6408 9.75333 27.2052 9.75333H24.5134V6.0737H27.2052ZM27.4295 12.2641C29.0222 12.2641 29.9643 12.9784 29.9643 14.2122C29.9643 15.381 29.0446 16.0953 27.4295 16.0953H24.5134V12.2641H27.4295Z" fill="#364954"/>
<path d="M40.6577 18.8009C43.7308 18.8009 45.7272 17.0693 46.0861 14.9048H42.9682C42.699 15.9438 41.8017 16.4849 40.5231 16.4849C38.9305 16.4849 37.8762 15.5325 37.8089 13.9524V13.8009H46.1759C46.2432 13.4546 46.2656 13.0866 46.2656 12.762C46.2207 9.49359 43.8879 7.41568 40.4334 7.41568C36.8668 7.41568 34.5115 9.66675 34.5115 13.1299C34.5115 16.5715 36.822 18.8009 40.6577 18.8009ZM37.8762 11.8096C38.0557 10.4893 39.0875 9.68839 40.4559 9.68839C41.8915 9.68839 42.856 10.446 43.0803 11.8096H37.8762Z" fill="#364954"/>
<path d="M50.5419 18.736L50.2503 19.4719C49.9363 20.2295 49.6671 20.4243 48.8596 20.4243H47.1099V23H50.183C51.9775 23 52.5607 22.0909 53.2786 20.2511L58.3929 7.54555H55.0058L52.2691 15.4676L49.4652 7.54555H46.1005L50.5419 18.736Z" fill="#364954"/>
<path d="M60.8357 6.35508C61.8675 6.35508 62.675 5.61915 62.675 4.64513C62.675 3.64947 61.8675 2.91354 60.8357 2.91354C59.8038 2.91354 58.9963 3.64947 58.9963 4.64513C58.9963 5.61915 59.8038 6.35508 60.8357 6.35508ZM59.243 18.671H62.4283V7.54555H59.243V18.671Z" fill="#364954"/>
<path d="M78.1809 7.41568C76.4313 7.41568 75.0854 8.10832 74.2778 9.29879C73.56 7.89187 72.2366 7.39404 70.8234 7.41568C69.1411 7.43732 68.1316 8.06503 67.4363 8.93082L67.1447 7.54555H64.3856V18.671H67.5484V12.6105C67.5484 10.9438 68.4457 9.92649 69.814 9.92649C71.2048 9.92649 71.8328 10.7923 71.8328 12.4589V18.671H74.9957V12.5888C74.9957 10.9005 75.9153 9.92649 77.2837 9.92649C78.652 9.92649 79.2801 10.7923 79.2801 12.4589V18.671H82.4429V12.2858C82.4429 8.71437 80.5586 7.41568 78.1809 7.41568Z" fill="#364954"/>
</g>
<rect x="87.7922" y="5.72266" width="32.2069" height="12.8917" rx="6.44586" fill="#FD2525"/>
<path d="M91.9252 15.8007C91.5453 15.8007 91.2018 15.7304 90.8947 15.5899C90.5876 15.4468 90.3443 15.2399 90.1647 14.9692C89.9878 14.6986 89.8993 14.3668 89.8993 13.9738C89.8993 13.6355 89.9644 13.3571 90.0945 13.1385C90.2246 12.9199 90.4003 12.7468 90.6215 12.6193C90.8427 12.4918 91.0899 12.3955 91.3631 12.3304C91.6364 12.2654 91.9148 12.2159 92.1985 12.1821C92.5576 12.1405 92.8491 12.1066 93.0729 12.0806C93.2967 12.052 93.4593 12.0064 93.5608 11.944C93.6623 11.8815 93.7131 11.78 93.7131 11.6395V11.6122C93.7131 11.2713 93.6168 11.0071 93.4242 10.8198C93.2342 10.6324 92.9506 10.5387 92.5732 10.5387C92.1803 10.5387 91.8706 10.6259 91.6442 10.8003C91.4204 10.972 91.2655 11.1633 91.1797 11.3741L90.0828 11.1242C90.2129 10.7599 90.4029 10.4659 90.6527 10.242C90.9051 10.0156 91.1953 9.85169 91.5232 9.7502C91.8511 9.64611 92.1959 9.59406 92.5576 9.59406C92.797 9.59406 93.0508 9.62269 93.3188 9.67994C93.5895 9.73459 93.8419 9.83608 94.0761 9.98441C94.3129 10.1327 94.5068 10.3448 94.6577 10.6207C94.8087 10.8939 94.8841 11.2492 94.8841 11.6864V15.668H93.7443V14.8482H93.6975C93.622 14.9992 93.5088 15.1475 93.3578 15.2932C93.2069 15.439 93.013 15.56 92.7762 15.6563C92.5394 15.7525 92.2557 15.8007 91.9252 15.8007ZM92.179 14.8638C92.5017 14.8638 92.7775 14.8001 93.0065 14.6726C93.2381 14.5451 93.4138 14.3785 93.5335 14.1729C93.6558 13.9647 93.717 13.7422 93.717 13.5054V12.7325C93.6753 12.7741 93.5947 12.8132 93.475 12.8496C93.3578 12.8834 93.2238 12.9134 93.0729 12.9394C92.9219 12.9628 92.7749 12.9849 92.6318 13.0058C92.4887 13.024 92.3689 13.0396 92.2727 13.0526C92.0463 13.0812 91.8394 13.1294 91.652 13.197C91.4672 13.2647 91.3189 13.3623 91.207 13.4898C91.0977 13.6147 91.043 13.7813 91.043 13.9894C91.043 14.2783 91.1497 14.4969 91.3631 14.6452C91.5765 14.791 91.8485 14.8638 92.179 14.8638ZM97.6059 7.67352V15.668H96.4387V7.67352H97.6059ZM99.1761 17.9164V9.67213H100.316V10.6441H100.413C100.481 10.5192 100.579 10.3748 100.706 10.2108C100.834 10.0469 101.011 9.90374 101.237 9.78143C101.464 9.65652 101.763 9.59406 102.135 9.59406C102.619 9.59406 103.051 9.71637 103.431 9.96099C103.811 10.2056 104.109 10.5582 104.325 11.0189C104.543 11.4795 104.653 12.0338 104.653 12.6818C104.653 13.3297 104.545 13.8854 104.329 14.3486C104.113 14.8092 103.816 15.1644 103.439 15.4142C103.061 15.6615 102.631 15.7851 102.147 15.7851C101.782 15.7851 101.484 15.7239 101.253 15.6016C101.024 15.4793 100.844 15.3362 100.714 15.1722C100.584 15.0083 100.484 14.8625 100.413 14.735H100.343V17.9164H99.1761ZM100.32 12.6701C100.32 13.0916 100.381 13.4612 100.503 13.7787C100.626 14.0961 100.803 14.3447 101.034 14.5242C101.266 14.7012 101.549 14.7897 101.885 14.7897C102.234 14.7897 102.525 14.6973 102.76 14.5125C102.994 14.3252 103.171 14.0714 103.29 13.7513C103.413 13.4312 103.474 13.0708 103.474 12.6701C103.474 12.2745 103.414 11.9193 103.294 11.6044C103.177 11.2895 103 11.041 102.763 10.8588C102.529 10.6766 102.236 10.5856 101.885 10.5856C101.547 10.5856 101.261 10.6727 101.026 10.8471C100.795 11.0215 100.619 11.2648 100.499 11.5771C100.38 11.8893 100.32 12.2537 100.32 12.6701ZM107.128 12.1079V15.668H105.96V7.67352H107.112V10.648H107.186C107.327 10.3253 107.541 10.069 107.83 9.87902C108.119 9.68905 108.496 9.59406 108.962 9.59406C109.373 9.59406 109.733 9.67864 110.04 9.84779C110.349 10.0169 110.589 10.2694 110.758 10.6051C110.93 10.9382 111.016 11.3546 111.016 11.8542V15.668H109.848V11.9947C109.848 11.5549 109.735 11.214 109.509 10.972C109.282 10.7274 108.967 10.6051 108.564 10.6051C108.288 10.6051 108.041 10.6636 107.822 10.7807C107.606 10.8978 107.436 11.0696 107.311 11.296C107.189 11.5198 107.128 11.7905 107.128 12.1079ZM114.318 15.8007C113.938 15.8007 113.594 15.7304 113.287 15.5899C112.98 15.4468 112.737 15.2399 112.557 14.9692C112.38 14.6986 112.292 14.3668 112.292 13.9738C112.292 13.6355 112.357 13.3571 112.487 13.1385C112.617 12.9199 112.793 12.7468 113.014 12.6193C113.235 12.4918 113.483 12.3955 113.756 12.3304C114.029 12.2654 114.307 12.2159 114.591 12.1821C114.95 12.1405 115.242 12.1066 115.466 12.0806C115.689 12.052 115.852 12.0064 115.953 11.944C116.055 11.8815 116.106 11.78 116.106 11.6395V11.6122C116.106 11.2713 116.009 11.0071 115.817 10.8198C115.627 10.6324 115.343 10.5387 114.966 10.5387C114.573 10.5387 114.263 10.6259 114.037 10.8003C113.813 10.972 113.658 11.1633 113.572 11.3741L112.475 11.1242C112.606 10.7599 112.796 10.4659 113.045 10.242C113.298 10.0156 113.588 9.85169 113.916 9.7502C114.244 9.64611 114.589 9.59406 114.95 9.59406C115.19 9.59406 115.443 9.62269 115.711 9.67994C115.982 9.73459 116.235 9.83608 116.469 9.98441C116.706 10.1327 116.899 10.3448 117.05 10.6207C117.201 10.8939 117.277 11.2492 117.277 11.6864V15.668H116.137V14.8482H116.09C116.015 14.9992 115.901 15.1475 115.75 15.2932C115.6 15.439 115.406 15.56 115.169 15.6563C114.932 15.7525 114.648 15.8007 114.318 15.8007ZM114.572 14.8638C114.894 14.8638 115.17 14.8001 115.399 14.6726C115.631 14.5451 115.806 14.3785 115.926 14.1729C116.048 13.9647 116.11 13.7422 116.11 13.5054V12.7325C116.068 12.7741 115.987 12.8132 115.868 12.8496C115.75 12.8834 115.616 12.9134 115.466 12.9394C115.315 12.9628 115.168 12.9849 115.024 13.0058C114.881 13.024 114.762 13.0396 114.665 13.0526C114.439 13.0812 114.232 13.1294 114.045 13.197C113.86 13.2647 113.712 13.3623 113.6 13.4898C113.49 13.6147 113.436 13.7813 113.436 13.9894C113.436 14.2783 113.542 14.4969 113.756 14.6452C113.969 14.791 114.241 14.8638 114.572 14.8638Z" fill="white"/>
<g clip-path="url(#clip1_12002_5079)">
<path fill-rule="evenodd" clip-rule="evenodd" d="M14.6232 4.7869C14.6232 6.37136 13.3863 7.65584 11.8604 7.65584C11.3035 7.65584 10.7191 7.73372 10.2926 8.10557L10.0946 8.27824C9.38837 8.89402 9.21793 9.92795 9.26363 10.8843C9.26711 10.9568 9.26886 11.0297 9.26886 11.103C9.26886 11.814 9.4498 12.5491 9.9672 13.0148L10.4634 13.4614C11.2052 14.1289 12.2495 14.2388 13.2311 14.2388C15.5613 14.2388 17.4504 16.2004 17.4504 18.6201C17.4504 21.0398 15.5613 23.0013 13.2311 23.0013C10.9009 23.0013 9.01185 21.0398 9.01185 18.6201C9.01185 17.8192 8.82385 16.9829 8.24103 16.4583L7.93566 16.1835C7.19577 15.5176 6.15008 15.4202 5.17113 15.439C5.14496 15.4395 5.11873 15.4398 5.09244 15.4398C2.78587 15.4398 0.916016 13.4981 0.916016 11.103C0.916016 8.70787 2.78587 6.76625 5.09244 6.76625C5.39991 6.76625 5.69963 6.80072 5.98816 6.86624C6.77372 7.04447 7.64451 7.01747 8.26027 6.4806L8.58213 6.19996C8.96987 5.86184 9.09752 5.31262 9.09752 4.7869C9.09752 3.20245 10.3345 1.91797 11.8604 1.91797C13.3863 1.91797 14.6232 3.20245 14.6232 4.7869Z" fill="#55BBEB"/>
</g>
<defs>
<clipPath id="clip0_12002_5079">
<rect width="62.2901" height="22" fill="white" transform="translate(20.1527 1)"/>
</clipPath>
<clipPath id="clip1_12002_5079">
<rect width="17.4046" height="21.0833" fill="white" transform="translate(0.916016 1.91797)"/>
</clipPath>
</defs>
</svg>
