<svg width="64" height="64" viewBox="0 0 64 64" fill="none" xmlns="http://www.w3.org/2000/svg">
<g id="loupe-search-svgrepo-com 1" clip-path="url(#clip0_9044_66924)">
<path id="Vector" d="M32 64C49.6731 64 64 49.6731 64 32C64 14.3269 49.6731 0 32 0C14.3269 0 0 14.3269 0 32C0 49.6731 14.3269 64 32 64Z" fill="#CBDCE7"/>
<path id="Vector_2" d="M38.5419 41.2716L41.3213 38.4922L35.2637 32.4346L32.4843 35.214L38.5419 41.2716Z" fill="#2B3B4E"/>
<path id="Vector_3" d="M25.6001 40.0127C33.56 40.0127 40.0127 33.56 40.0127 25.6001C40.0127 17.6402 33.56 11.1875 25.6001 11.1875C17.6402 11.1875 11.1875 17.6402 11.1875 25.6001C11.1875 33.56 17.6402 40.0127 25.6001 40.0127Z" fill="white"/>
<path id="Vector_4" d="M25.5999 37.2409C32.029 37.2409 37.2409 32.029 37.2409 25.5999C37.2409 19.1708 32.029 13.959 25.5999 13.959C19.1708 13.959 13.959 19.1708 13.959 25.5999C13.959 32.029 19.1708 37.2409 25.5999 37.2409Z" fill="#A3C0D2"/>
<path id="Vector_5" d="M52.5102 49.2336L49.2347 52.5092C48.8315 52.9123 48.1764 52.9123 47.7732 52.5092L36.9386 41.7249C36.5354 41.3218 36.5354 40.6666 36.9386 40.2635L40.2142 36.9879C40.6173 36.5848 41.2724 36.5848 41.6756 36.9879L52.4599 47.7722C52.9134 48.1753 52.9134 48.8304 52.5102 49.2336Z" fill="#324A5E"/>
<path id="Vector_6" d="M20.1406 20.8002C20.9475 19.9933 21.2187 18.9564 20.7464 18.484C20.2741 18.0117 19.2371 18.2829 18.4302 19.0898C17.6233 19.8967 17.3521 20.9337 17.8244 21.406C18.2968 21.8783 19.3337 21.6071 20.1406 20.8002Z" fill="white"/>
</g>
<defs>
<clipPath id="clip0_9044_66924">
<rect width="64" height="64" fill="white"/>
</clipPath>
</defs>
</svg>
