<svg width="22" height="25" viewBox="0 0 22 25" fill="none" xmlns="http://www.w3.org/2000/svg">
<path id="Vector" fill-rule="evenodd" clip-rule="evenodd" d="M9.04133 2.51412C8.9689 2.61859 8.89819 2.72486 8.83266 2.83474C8.64406 3.14929 8.49455 3.48764 8.38775 3.84163C8.12045 4.54568 7.99709 5.30034 8.02561 6.05715C6.49083 4.17846 3.24881 2.69784 0.5 4.5369C9.48107 6.01932 13.3611 13.5755 11.3642 24.5H11.428C18.3121 18.1795 11.8626 11.4122 10.6089 9.12285C9.63972 7.36304 9.35518 5.37628 10.1174 3.97492C10.4623 3.39132 10.9658 2.7771 11.5918 2.51952C12.0531 2.29083 12.5592 2.17793 13.0697 2.18981C13.5802 2.2017 14.081 2.33804 14.5321 2.58797C14.9564 2.82322 15.3198 3.16256 15.5909 3.57685C16.1807 4.47746 16.0151 6.05715 15.6564 6.66056C15.2977 7.26398 15.3753 7.07124 15.2063 7.24236C14.7597 7.67646 13.8802 7.68726 13.4819 7.46211C13.0835 7.23696 13.0731 7.1523 12.9507 6.94155C12.9365 6.91385 12.9291 6.88291 12.9291 6.85149C12.9291 6.82007 12.9365 6.78914 12.9507 6.76143C12.9668 6.73462 12.9886 6.71195 13.0142 6.69512C13.0399 6.67828 13.0689 6.6677 13.099 6.66416C13.3466 6.66258 13.5896 6.59344 13.8037 6.46359C14.0179 6.33373 14.1958 6.14767 14.3199 5.92386C14.4798 5.62416 14.5363 5.27627 14.4801 4.93828C14.4239 4.6003 14.2584 4.29267 14.0113 4.06678C13.8026 3.89533 13.5576 3.77869 13.2968 3.72667C13.0361 3.67464 12.7672 3.68873 12.5127 3.76778C10.4313 4.43784 10.6554 7.83857 12.6075 8.93192C13.0566 9.18836 13.5598 9.32393 14.0716 9.32639C14.5181 9.34564 14.9637 9.27 15.3813 9.10405C15.799 8.93809 16.1801 8.68528 16.5014 8.36093C16.7584 8.10683 16.9802 7.81642 17.1602 7.49814C17.4526 6.98911 17.6542 6.42885 17.7551 5.8446C17.8756 5.94833 18.0055 6.03943 18.1431 6.11659C19.2364 6.72901 20.9023 5.91845 21.2696 5.30243C21.3786 5.14494 21.4561 4.96603 21.4972 4.77647C21.5041 4.73405 21.4982 4.69045 21.4802 4.65172C21.4623 4.61298 21.4333 4.58104 21.3972 4.56032C21.3711 4.54501 21.3421 4.53593 21.3123 4.53375C21.2825 4.53157 21.2526 4.53634 21.2247 4.54771C20.3918 4.91877 19.1726 4.78187 18.538 4.42703C17.9034 4.07218 17.7844 3.87405 17.5413 3.5066C17.324 3.19859 17.1964 2.82753 16.9739 2.52853C16.5588 1.94313 16.0239 1.46191 15.4081 1.11996C14.6678 0.708288 13.8411 0.495358 13.0024 0.500334C12.237 0.491221 11.4801 0.66846 10.7916 1.018C10.1032 1.36755 9.50214 1.87978 9.03615 2.51412H9.04133Z" fill="#9AAEBB"/>
</svg>
