<svg width="16" height="16" viewBox="0 0 16 16" fill="none" xmlns="http://www.w3.org/2000/svg">
<g id="ph:x-bold">
<rect width="16" height="16" rx="8" fill="white"/>
<path id="Vector" d="M11.831 11.0232C11.9383 11.1305 11.9986 11.2761 11.9986 11.4278C11.9986 11.5796 11.9383 11.7251 11.831 11.8324C11.7237 11.9397 11.5781 12 11.4264 12C11.2746 12 11.1291 11.9397 11.0218 11.8324L7.99976 8.80942L4.97677 11.8315C4.86946 11.9388 4.72393 11.999 4.57218 11.999C4.42043 11.999 4.27489 11.9388 4.16759 11.8315C4.06028 11.7242 4 11.5786 4 11.4269C4 11.2751 4.06028 11.1296 4.16759 11.0223L7.19058 8.00024L4.16854 4.97724C4.06123 4.86994 4.00095 4.7244 4.00095 4.57265C4.00095 4.4209 4.06123 4.27537 4.16854 4.16806C4.27584 4.06076 4.42138 4.00048 4.57313 4.00048C4.72488 4.00048 4.87041 4.06076 4.97772 4.16806L7.99976 7.19106L11.0228 4.16759C11.1301 4.06028 11.2756 4 11.4273 4C11.5791 4 11.7246 4.06028 11.8319 4.16759C11.9392 4.27489 11.9995 4.42043 11.9995 4.57218C11.9995 4.72393 11.9392 4.86946 11.8319 4.97677L8.80894 8.00024L11.831 11.0232Z" fill="#36A0D0"/>
</g>
</svg>
