<svg width="16" height="16" viewBox="0 0 16 16" fill="none" xmlns="http://www.w3.org/2000/svg">
<g id="ph:x-bold">
<rect width="16" height="16" rx="8" fill="#A3C0D2"/>
<path id="Vector" d="M8.57117 12.8473C8.57117 12.999 8.51088 13.1446 8.40358 13.2519C8.29628 13.3592 8.15074 13.4194 7.99899 13.4194C7.84724 13.4194 7.7017 13.3592 7.5944 13.2519C7.4871 13.1446 7.42681 12.999 7.42681 12.8473L7.42749 8.57278L3.153 8.57211C3.00125 8.57211 2.85571 8.51182 2.74841 8.40452C2.6411 8.29722 2.58082 8.15168 2.58082 7.99993C2.58082 7.84818 2.6411 7.70265 2.74841 7.59534C2.85571 7.48804 3.00125 7.42775 3.153 7.42776L7.42749 7.42843L7.42816 3.15394C7.42816 3.00219 7.48844 2.85665 7.59575 2.74935C7.70305 2.64205 7.84859 2.58176 8.00034 2.58176C8.15209 2.58176 8.29762 2.64205 8.40493 2.74935C8.51223 2.85665 8.57251 3.00219 8.57251 3.15394L8.57184 7.42843L12.8473 7.42809C12.9991 7.42809 13.1446 7.48837 13.2519 7.59568C13.3592 7.70298 13.4195 7.84852 13.4195 8.00027C13.4195 8.15202 13.3592 8.29755 13.2519 8.40486C13.1446 8.51216 12.9991 8.57244 12.8473 8.57244L8.57184 8.57278L8.57117 12.8473Z" fill="white"/>
</g>
</svg>
