<svg width="22" height="24" viewBox="0 0 22 24" fill="none" xmlns="http://www.w3.org/2000/svg">
<g id="fluent:image-shadow-24-filled">
<path id="Vector" d="M5.09375 2C4.33954 2 3.61622 2.34241 3.08292 2.9519C2.54961 3.5614 2.25 4.38805 2.25 5.25V14.25C2.25 14.891 2.41275 15.49 2.69275 15.993L7.68113 10.623C8.04641 10.2296 8.52936 10.0106 9.03125 10.0106C9.53315 10.0106 10.0161 10.2296 10.3814 10.623L15.3689 15.993C15.6593 15.4723 15.8133 14.8675 15.8125 14.25V5.25C15.8125 4.8232 15.7389 4.40059 15.596 4.00628C15.4531 3.61197 15.2437 3.25369 14.9796 2.9519C14.7155 2.65011 14.402 2.41072 14.057 2.24739C13.712 2.08406 13.3422 2 12.9688 2H5.09375ZM11.6563 8C11.3662 8 11.088 7.8683 10.8829 7.63388C10.6777 7.39946 10.5625 7.08152 10.5625 6.75C10.5625 6.41848 10.6777 6.10054 10.8829 5.86612C11.088 5.6317 11.3662 5.5 11.6563 5.5C11.9463 5.5 12.2245 5.6317 12.4296 5.86612C12.6348 6.10054 12.75 6.41848 12.75 6.75C12.75 7.08152 12.6348 7.39946 12.4296 7.63388C12.2245 7.8683 11.9463 8 11.6563 8ZM5.09375 17.5C4.56 17.5 4.06125 17.332 3.63425 17.04L8.5815 11.715C8.70323 11.5841 8.86409 11.5112 9.03125 11.5112C9.19841 11.5112 9.35927 11.5841 9.481 11.715L14.4283 17.04C13.9873 17.3419 13.4828 17.501 12.9688 17.5H5.09375ZM6.18663 18.75V18.5H13.1875C14.1158 18.5 15.006 18.0786 15.6624 17.3284C16.3188 16.5783 16.6875 15.5609 16.6875 14.5V6.5H16.9054C17.6596 6.5 18.3829 6.84241 18.9162 7.4519C19.4495 8.0614 19.7491 8.88805 19.7491 9.75V16.75C19.7491 21.0481 18.875 22 15.1554 22H9.03038C8.65693 22 8.28714 21.9159 7.94212 21.7526C7.5971 21.5893 7.28361 21.3499 7.01954 21.0481C6.75547 20.7463 6.546 20.388 6.40309 19.9937C6.26018 19.5994 6.18663 19.1768 6.18663 18.75Z" fill="white"/>
</g>
</svg>
