<svg width="16" height="16" viewBox="0 0 16 16" fill="none" xmlns="http://www.w3.org/2000/svg">
<path d="M7.99966 5.33268C7.90766 5.33268 7.83299 5.40735 7.83366 5.49935C7.83366 5.59135 7.90833 5.66602 8.00033 5.66602C8.09233 5.66602 8.16699 5.59135 8.16699 5.49935C8.16699 5.40735 8.09233 5.33268 7.99966 5.33268" stroke="#ED1E1E" stroke-width="1.5" stroke-linecap="round" stroke-linejoin="round"/>
<path fill-rule="evenodd" clip-rule="evenodd" d="M8 14V14C4.686 14 2 11.314 2 8V8C2 4.686 4.686 2 8 2V2C11.314 2 14 4.686 14 8V8C14 11.314 11.314 14 8 14Z" stroke="#ED1E1E" stroke-width="1.5" stroke-linecap="round" stroke-linejoin="round"/>
<path d="M8.00033 8V11.3333" stroke="#ED1E1E" stroke-width="1.5" stroke-linecap="round" stroke-linejoin="round"/>
</svg>
