<svg width="24" height="24" viewBox="0 0 24 24" fill="none" xmlns="http://www.w3.org/2000/svg">
<g id="solar:star-bold">
<rect width="24" height="24" rx="4" fill="#E9F0F3"/>
<path id="Vector" d="M9.72245 6.72634C10.736 4.90878 11.2424 4 12 4C12.7576 4 13.264 4.90878 14.2775 6.72634L14.5399 7.19673C14.8279 7.71352 14.9719 7.97192 15.1959 8.14231C15.4199 8.31271 15.6999 8.37591 16.2599 8.5023L16.7687 8.6175C18.7366 9.06309 19.7198 9.28549 19.9542 10.0383C20.1878 10.7903 19.5174 11.575 18.1759 13.1438L17.8287 13.5494C17.4479 13.995 17.2567 14.2182 17.1711 14.4934C17.0855 14.7694 17.1143 15.067 17.1719 15.6614L17.2247 16.2029C17.4271 18.2965 17.5287 19.3429 16.9159 19.8077C16.3031 20.2733 15.3815 19.8485 13.54 19.0005L13.0624 18.7813C12.5392 18.5397 12.2776 18.4197 12 18.4197C11.7224 18.4197 11.4608 18.5397 10.9368 18.7813L10.4608 19.0005C8.61848 19.8485 7.6969 20.2725 7.08492 19.8085C6.47133 19.3429 6.57293 18.2965 6.77532 16.2029L6.82812 15.6622C6.88572 15.067 6.91452 14.7694 6.82812 14.4942C6.74332 14.2182 6.55213 13.995 6.17134 13.5502L5.82415 13.1438C4.48258 11.5758 3.81219 10.7911 4.04579 10.0383C4.28018 9.28549 5.26416 9.06229 7.23211 8.6175L7.7409 8.5023C8.30009 8.37591 8.57928 8.31271 8.80408 8.14231C9.02807 7.97192 9.17207 7.71352 9.46006 7.19673L9.72245 6.72634Z" fill="#A3C0D2"/>
</g>
</svg>
