<svg width="24" height="24" viewBox="0 0 24 24" fill="none" xmlns="http://www.w3.org/2000/svg">
<g id="fluent:video-20-filled">
<path id="Vector" d="M15.6004 7.80078C15.6004 7.00513 15.2843 6.24207 14.7217 5.67946C14.1591 5.11685 13.396 4.80078 12.6004 4.80078H5.40039C4.60474 4.80078 3.84168 5.11685 3.27907 5.67946C2.71646 6.24207 2.40039 7.00513 2.40039 7.80078V16.2008C2.40039 16.9964 2.71646 17.7595 3.27907 18.3221C3.84168 18.8847 4.60474 19.2008 5.40039 19.2008H12.6004C13.396 19.2008 14.1591 18.8847 14.7217 18.3221C15.2843 17.7595 15.6004 16.9964 15.6004 16.2008V7.80078ZM16.8004 9.51678V14.4992L20.1172 17.3192C20.2481 17.4306 20.4082 17.5022 20.5786 17.5254C20.7489 17.5487 20.9224 17.5227 21.0784 17.4505C21.2344 17.3783 21.3665 17.2629 21.459 17.118C21.5515 16.9731 21.6006 16.8047 21.6004 16.6328V7.43238C21.6001 7.26147 21.5511 7.09418 21.4593 6.95007C21.3674 6.80595 21.2364 6.69099 21.0815 6.61861C20.9267 6.54623 20.7545 6.51943 20.585 6.54135C20.4155 6.56327 20.2557 6.633 20.1244 6.74238L16.8004 9.51678Z" fill="#B9C9E3"/>
</g>
</svg>
