<svg width="18" height="18" viewBox="0 0 18 18" fill="none" xmlns="http://www.w3.org/2000/svg">
<g id="evaImage2Fill0">
<g id="evaImage2Fill1">
<path id="evaImage2Fill2" d="M15 0H3C2.20435 0 1.44129 0.316071 0.87868 0.87868C0.316071 1.44129 0 2.20435 0 3V15C0 15.7956 0.316071 16.5587 0.87868 17.1213C1.44129 17.6839 2.20435 18 3 18H15C15.7956 18 16.5587 17.6839 17.1213 17.1213C17.6839 16.5587 18 15.7956 18 15V3C18 2.20435 17.6839 1.44129 17.1213 0.87868C16.5587 0.316071 15.7956 0 15 0ZM5 4C5.29667 4 5.58668 4.08797 5.83335 4.2528C6.08003 4.41762 6.27229 4.65189 6.38582 4.92597C6.49935 5.20006 6.52906 5.50166 6.47118 5.79264C6.4133 6.08361 6.27044 6.35088 6.06066 6.56066C5.85088 6.77044 5.58361 6.9133 5.29264 6.97118C5.00166 7.02906 4.70006 6.99935 4.42597 6.88582C4.15189 6.77229 3.91762 6.58003 3.7528 6.33335C3.58797 6.08668 3.5 5.79667 3.5 5.5C3.5 5.10218 3.65804 4.72064 3.93934 4.43934C4.22064 4.15804 4.60218 4 5 4ZM16 14.83C16.0221 15.1177 15.9292 15.4023 15.7418 15.6217C15.5543 15.841 15.2876 15.977 15 16H3L10.57 9.18C10.6971 9.06406 10.863 8.99978 11.035 8.99978C11.207 8.99978 11.3729 9.06406 11.5 9.18L16 13.66V14.83Z" fill="#B9C9E3"/>
</g>
</g>
</svg>
